<?xml version="1.0" encoding="UTF-8"?>
<svg width="256" height="256" viewBox="0 0 256 256" xmlns="http://www.w3.org/2000/svg">
  <defs>
    <linearGradient id="bgGradient" x1="0%" y1="0%" x2="100%" y2="100%">
      <stop offset="0%" style="stop-color:#0078D4;stop-opacity:1" />
      <stop offset="100%" style="stop-color:#00B7C3;stop-opacity:1" />
    </linearGradient>
    <linearGradient id="chipGradient" x1="0%" y1="0%" x2="100%" y2="100%">
      <stop offset="0%" style="stop-color:#FFFFFF;stop-opacity:0.9" />
      <stop offset="100%" style="stop-color:#E1E1E1;stop-opacity:0.9" />
    </linearGradient>
  </defs>

  <!-- Background circle with gradient -->
  <circle cx="128" cy="128" r="120" fill="url(#bgGradient)" />

  <!-- Circuit board pattern -->
  <g opacity="0.15" stroke="#FFFFFF" stroke-width="2" fill="none">
    <!-- Horizontal lines -->
    <line x1="40" y1="80" x2="216" y2="80" />
    <line x1="40" y1="128" x2="216" y2="128" />
    <line x1="40" y1="176" x2="216" y2="176" />

    <!-- Vertical lines -->
    <line x1="80" y1="40" x2="80" y2="216" />
    <line x1="128" y1="40" x2="128" y2="216" />
    <line x1="176" y1="40" x2="176" y2="216" />

    <!-- Connection nodes -->
    <circle cx="80" cy="80" r="4" fill="#FFFFFF" />
    <circle cx="176" cy="80" r="4" fill="#FFFFFF" />
    <circle cx="80" cy="176" r="4" fill="#FFFFFF" />
    <circle cx="176" cy="176" r="4" fill="#FFFFFF" />
    <circle cx="128" cy="128" r="4" fill="#FFFFFF" />
  </g>

  <!-- Main chip icon -->
  <g>
    <!-- Chip body -->
    <rect x="88" y="88" width="80" height="80" rx="8" fill="url(#chipGradient)"
          stroke="#FFFFFF" stroke-width="3" />

    <!-- Chip pins (left) -->
    <rect x="68" y="100" width="20" height="6" fill="#FFFFFF" />
    <rect x="68" y="125" width="20" height="6" fill="#FFFFFF" />
    <rect x="68" y="150" width="20" height="6" fill="#FFFFFF" />

    <!-- Chip pins (right) -->
    <rect x="168" y="100" width="20" height="6" fill="#FFFFFF" />
    <rect x="168" y="125" width="20" height="6" fill="#FFFFFF" />
    <rect x="168" y="150" width="20" height="6" fill="#FFFFFF" />

    <!-- Chip pins (top) -->
    <rect x="100" y="68" width="6" height="20" fill="#FFFFFF" />
    <rect x="125" y="68" width="6" height="20" fill="#FFFFFF" />
    <rect x="150" y="68" width="6" height="20" fill="#FFFFFF" />

    <!-- Chip pins (bottom) -->
    <rect x="100" y="168" width="6" height="20" fill="#FFFFFF" />
    <rect x="125" y="168" width="6" height="20" fill="#FFFFFF" />
    <rect x="150" y="168" width="6" height="20" fill="#FFFFFF" />

    <!-- Chip center detail -->
    <circle cx="128" cy="128" r="15" fill="#0078D4" opacity="0.5" />
    <circle cx="128" cy="128" r="8" fill="#FFFFFF" />
  </g>

  <!-- Text: OBSC -->
  <text x="128" y="235" font-family="Segoe UI, Arial, sans-serif" font-size="24"
        font-weight="bold" fill="#FFFFFF" text-anchor="middle">OBSC</text>
</svg>